<svg viewBox="0 0 55 34" id="motorcycles" xmlns="http://www.w3.org/2000/svg"> <path d="M46.1 16c-1.6 0-3.1.4-4.4 1.2L39.4 14c2.9-2.2 5.9-3.2 6.2-3.2.3-.1.6-.3.7-.7.1-.3.1-.7 0-1C42.4.8 36.2 0 36 0c-.5 0-1 .2-1.2.7-.2.4-.1 1 .2 1.3.7.8 1 1.6.9 2.6 0 .4-.2.9-.3 1.3-6.7-2.2-10.9.9-12.4 2.4-3.7-1.3-7.1-2-10-2-4.5 0-6.4 1.6-6.6 1.8-.5.3-.6.7-.5 1.2.1.4.5.7.9.8 4.3.8 7.3 2.3 9.4 4l-2.7 3.2c-1.4-.9-3-1.4-4.8-1.4C4 16 0 20 0 25s4 9 8.9 9 8.9-4 8.9-9c0-2.3-.9-4.4-2.3-6l2.6-3.1c3.8 4.5 3 9.9 3 10.2-.1.3 0 .7.3 1 .2.3.5.4.9.4h10.5c.3 0 .7-.2.9-.4.2-.3.3-.6.3-1-.7-4.7 1.2-8.1 3.8-10.5l2.2 3c-1.6 1.6-2.7 3.9-2.7 6.4 0 5 4 9 8.9 9s8.9-4 8.9-9c-.1-5-4.1-9-9-9zM8.9 31.6c-3.6 0-6.6-3-6.6-6.6 0-3.7 2.9-6.6 6.6-6.6 1.2 0 2.3.3 3.3.9l-4.2 5 1.8 1.5 4.2-5c.9 1.1 1.5 2.6 1.5 4.2 0 3.6-2.9 6.6-6.6 6.6zM34.3 8c-1.1 1.5-2.7 2.8-3.7 3.6-1.7-.9-3.4-1.7-5-2.3 1.5-1.2 4.5-2.5 8.7-1.3zm-2.9 17.1h-8c.1-3.5-.9-12.6-12.2-16.3.5-.1 1.1-.1 1.8-.1 3.1 0 8.7.9 17.1 5.4.4.2.8.2 1.2-.1.3-.2 6.3-4.4 6.8-9.1.1-.6 0-1.1 0-1.6 1.6.9 3.7 2.5 5.4 5.8-3.4 1.4-12.7 6.3-12.1 16zm14.7 6.5c-3.6 0-6.6-3-6.6-6.6 0-1.7.7-3.3 1.7-4.5l3.9 5.2 1.9-1.4-4-5.3c.9-.5 1.9-.7 2.9-.7 3.6 0 6.6 3 6.6 6.6.2 3.7-2.8 6.7-6.4 6.7z"/> </svg>