<svg viewBox="0 0 54 48" id="boats" xmlns="http://www.w3.org/2000/svg"> <path d="M54 44.2c-.1-.3-.4-.6-.7-.6l-20.8-2.8v-2.3l17 2.4c.4 0 .7-.1.9-.4.2-.3.2-.7 0-1l-1.6-2.1C41.2 27.1 37.4 22 32.4 10.5V7.3l7.9 1.6c.4.1.8-.1 1-.5.2-.4.1-.8-.3-1.1L32 .2c-.3-.2-.6-.3-1-.1-.3.1-.5.5-.5.8v3C22.2 7.8 11.2 16 5.4 33.5c-.1.2 0 .5.1.7.1.2.4.4.6.4l24.4 3.5v2.3L1 36.5c-.3 0-.5 0-.7.2-.2.1-.3.4-.3.6C0 43.2 4.8 48 10.8 48h39.6c.2 0 .5-.1.6-.3l2.7-2.7c.3-.2.4-.5.3-.8zM32.4 2.7L37 6.4l-4.6-.9V2.7zm0 12.2c4.3 9.3 8.3 14.6 14.8 23.5l.3.4-15.1-2.2V14.9zM7.5 33.1C12.8 17.7 22.3 10 30 6.1c-1.6 5.6-5.6 21.6-.4 30.1L7.5 33.1zm23.1 1.2c-3-6.3-1.5-16.5 0-23.1v23.1zM50 46.2H10.8c-4.6 0-8.4-3.4-8.9-7.9L51.2 45 50 46.2z"/> </svg>