<svg id="phone" viewBox="0 0 22 22" xmlns="http://www.w3.org/2000/svg"> <style> .kst0{fill:#60d2b1}</style> <path class="kst0" d="M16.2 14.2c-.7-.6-1.5-.6-2.1 0l-1.5 1.5c-.1.1-.2.2-.4.1-.3-.2-.7-.3-1-.5-1.4-.9-2.6-2.1-3.7-3.4-.5-.6-1-1.3-1.3-2.1-.1-.2-.1-.3.1-.4l1.5-1.5c.7-.7.7-1.5 0-2.2-.5-.3-.8-.7-1.2-1.1L5.4 3.4c-.7-.6-1.5-.6-2.1 0L1.8 4.9c-.5.4-.7 1-.8 1.6-.1 1 .2 2 .5 3 .7 2 1.8 3.7 3.2 5.3 1.8 2.2 4 3.9 6.6 5.1 1.1.6 2.3 1 3.6 1.1.9 0 1.7-.2 2.3-.9.4-.5.9-.9 1.4-1.4.7-.7.7-1.5 0-2.2-.8-.7-1.6-1.5-2.4-2.3zm-.8-3.3l1.5-.3C16.7 9.2 16 8 15 6.9c-1.1-1.1-2.4-1.7-3.9-2l-.2 1.5c1.2.2 2.2.7 3 1.5.8.9 1.3 1.9 1.5 3zm2.4-6.7c-1.8-1.8-4-2.9-6.5-3.2l-.2 1.5c2.1.3 4.1 1.3 5.6 2.8 1.5 1.5 2.4 3.3 2.8 5.3l1.5-.3c-.4-2.3-1.5-4.4-3.2-6.1z"/> </svg>