<svg id="type-04" viewBox="0 0 98 98" xmlns="http://www.w3.org/2000/svg"> <style> .wst0{fill-rule:evenodd;clip-rule:evenodd;fill:#60d1b0}</style> <path class="wst0" d="M21.1 27.4h2.3v8.9h-2.3zm8 1.8c-.8-1.1-2.1-1.7-3.5-1.8v8.9c.7-.1 1.4-.3 2-.6l1.5-6.5zm-1.2 35c-.3 1.4-1.7 2.4-3.2 2.4-.2 0-.5 0-.7-.1-1.8-.3-2.9-2-2.5-3.6l1.5-6.5c-1.5.3-2.8 1-3.9 2-1.4 1.4-2.2 3.2-2.2 5.1 0 4 3.5 7.3 7.8 7.3s7.8-3.3 7.8-7.3c0-2.3-1.2-4.5-3.2-5.8l-1.4 6.5zm35.4-17.6h-6.2v3.3h2.3c2 0 3.7-1.5 3.9-3.3zm15.3-7c0-2.4-2.1-4.3-4.6-4.3h-1.3v4.9h5.9v-.6zm-21.5-4.3h5.1v4.9h-5.1zm7.4 0h5.9v4.9h-5.9z"/> <path class="wst0" d="M34.7 24c.1-.5-.2-1-.8-1.1h-.2c-.2 0-.4.1-.5.1-.2.1-.4.3-.4.6l-9 39.7c-.1.5.2 1 .8 1.1h.2c.5 0 .9-.3 1-.7L34.7 24zm38.6 28c-2.7 0-5.3.8-7.4 2.3-1.7 1.2-3.1 2.8-3.9 4.6l2.4.3c1.7-3.1 5.2-5.1 9-5.1 5.6 0 10.1 4.2 10.1 9.4s-4.5 9.4-10.1 9.4c-4.8 0-8.9-3.1-9.9-7.4l-2.5-.2c.4 2.5 1.7 4.8 3.7 6.6 2.3 2.1 5.4 3.2 8.6 3.2 6.8 0 12.4-5.2 12.4-11.5 0-6.4-5.6-11.6-12.4-11.6zm-25.7 8.5c.1-.8.6-1.6 1.3-2.1.7-.5 1.6-.7 2.5-.6l1.7.2v-.6h-6.9v6c0 1 .8 1.7 1.9 1.7h3.1c.6 0 1.2-.3 1.5-.8l-2.2-.3c-1.8-.2-3.2-1.8-2.9-3.5z"/> <path class="wst0" d="M73.3 66.8h-.4l-7-.8c1.1 2.9 4 5 7.4 5 4.3 0 7.8-3.3 7.8-7.3s-3.5-7.3-7.8-7.3c-2.7 0-5.1 1.3-6.6 3.3l7 .8c.9.1 1.7.5 2.3 1.2.6.7.8 1.5.7 2.4-.2 1.5-1.7 2.7-3.4 2.7z"/> <path class="wst0" d="M74.4 63.7c0-.3 0-.6-.2-.8-.2-.2-.5-.4-.8-.4l-19.3-2.3-3-.4h-.2c-.3 0-.5.1-.7.2-.2.2-.4.4-.4.7-.1.6.4 1.1 1 1.2l22.3 2.7c.7.1 1.3-.3 1.3-.9zm-19.7-9v-8h-12v6.2c0 1.3 1.1 2.3 2.4 2.3h9.1c.3 0 .5-.2.5-.5zm-7.6-2.4c0 .6-.5 1.1-1.1 1.1-.6 0-1.1-.5-1.1-1.1v-3.1c0-.6.5-1.1 1.1-1.1.6 0 1.1.5 1.1 1.1v3.1zm4.2 0c0 .6-.5 1.1-1.1 1.1-.6 0-1.1-.5-1.1-1.1v-3.1c0-.6.5-1.1 1.1-1.1.6 0 1.1.5 1.1 1.1v3.1z"/> <path class="wst0" d="M49 1C22.5 1 1 22.5 1 49s21.5 48 48 48 48-21.5 48-48S75.5 1 49 1zm24.3 76.2c-3.8 0-7.4-1.4-10.2-3.8-2.5-2.2-4.1-5.2-4.4-8.4l-3.5-.4c-.6 1.5-2.1 2.6-3.9 2.6h-3.1c-2.3 0-4.2-1.7-4.2-3.9v-6.2c-2-.5-3.6-2.2-3.6-4.3v-6.2h-.2c-2.9 0-5.7-1.2-7.6-3.2L30.9 51c1.3.6 2.5 1.3 3.6 2.2.5.4.5 1.1.1 1.5-.2.2-.5.4-.9.4-.3 0-.5-.1-.8-.3-.8-.6-1.6-1.2-2.6-1.6l-.5 2.2c3 1.7 5 4.8 5 8.1 0 5.2-4.5 9.4-10.1 9.4s-10.1-4.2-10.1-9.4c0-2.5 1-4.8 2.9-6.5 1.6-1.6 3.7-2.5 6-2.8L24 52c-6.5.4-11.7 5.4-11.7 11.5 0 6.4 5.6 11.5 12.4 11.5 6.8 0 12.4-5.2 12.4-11.5 0-1.8-.4-3.5-1.3-5.1-.3-.5 0-1.2.5-1.4.6-.3 1.3 0 1.5.5 1 1.9 1.5 3.9 1.5 6 0 7.5-6.6 13.6-14.7 13.6S9.9 71 9.9 63.5c0-7.4 6.5-13.5 14.4-13.6L27 38.1c-.6.2-1.2.2-1.9.2h-5.3c-.6 0-1.1-.5-1.1-1.1v-11c0-.6.5-1.1 1.1-1.1h5.3c1.6 0 3.2.5 4.5 1.5l.8-3.5c.2-.8.7-1.5 1.4-1.9.7-.4 1.6-.6 2.5-.4 1.3.3 2.3 1.2 2.5 2.3h5.8c.6 0 1.1.5 1.1 1.1 0 .6-.5 1.1-1.1 1.1h-6l-1.2 5.5h.4c.6 0 1.1.5 1.1 1.1 0 .6-.5 1.1-1.1 1.1H35l-1.8 7.8c1.4 2.4 4 3.9 6.9 3.9h14.7V34.4c0-.8-.7-1.5-1.7-1.5h-12c-.6 0-1.1-.5-1.1-1.1 0-.6.5-1.1 1.1-1.1h12.1c1.7 0 3.2 1 3.7 2.4H74c3.8 0 6.9 2.9 6.9 6.4V44c0 1.4-1.2 2.5-2.7 2.5H72c-.6 0-1.1-.5-1.1-1.1 0-.6.5-1.1 1.1-1.1h6.3c.2 0 .4-.2.4-.4v-1.8H57.1v2.1h9.5c.6 0 1.1.5 1.1 1.1 0 .6-.5 1.1-1.1 1.1h-1.1c-.2 3-2.9 5.4-6.1 5.4H57v2.7c0 1-.7 1.9-1.6 2.4v1.2l4.2.5c1-2.4 2.7-4.5 4.9-6.1 2.6-1.8 5.6-2.7 8.8-2.7C81.4 49.9 88 56 88 63.6c0 7.5-6.6 13.6-14.7 13.6z"/> </svg>