 <svg id="type-05" viewBox="0 0 98 98" xmlns="http://www.w3.org/2000/svg"> <style> .xst0{fill-rule:evenodd;clip-rule:evenodd;fill:#60d1b0}</style> <path class="xst0" d="M58.4 63.8h5.5v1.9h-5.5zm-14.9 0H49v1.9h-5.5zm-9.4 1.9v-1.9h-5.6l.1 1.9zm16.8-1.9h5.5v1.9h-5.5zM22 71.9c0-.5.1-1.1.2-1.6l-1.8-.8c-.2.7-.3 1.5-.3 2.3 0 1.6.4 3 1.2 4.3l1.5-1.2c-.5-.8-.8-1.8-.8-3zm4.7-6l-.2-1.9c-2.3.5-4.2 1.9-5.4 3.9l1.8.8c.9-1.4 2.2-2.4 3.8-2.8zm-2.8 6c0 1.9 1.3 3.5 3 4.1h.1c.4.1.8.2 1.2.2 2.4 0 4.3-1.9 4.3-4.3s-1.9-4.3-4.3-4.3-4.3 2-4.3 4.3zM36 63.8h5.5v1.9H36zm2.9-21.9l-6.5-2.8-9.2 2.4c-.6.2-1 .7-1 1.3V45h2.3c.9 0 1.6.7 1.6 1.5v2.7c0 .8-.7 1.5-1.6 1.5h-2.3v3.4h16.9v-12s-.1-.2-.2-.2zm-7.9-24h46.6v1.9H31zm-.6 60.3h5.5v1.9h-5.5z"/> <path class="xst0" d="M22.2 47h1.9v1.9h-1.9zm25.1-.2v7.4h8.4V45h-6.5c-1.1 0-1.9.8-1.9 1.8zM32.7 67.6c1.1 1.1 1.7 2.6 1.7 4.3 0 1.7-.7 3.2-1.7 4.3h32.6c-1.1-1.1-1.7-2.6-1.7-4.3 0-1.7.7-3.2 1.7-4.3H32.7zm27.1 5.3H38.2c-.5 0-1-.4-1-1 0-.5.4-1 1-1h21.7c.5 0 1 .4 1 1-.1.6-.5 1-1.1 1zM31.3 60h36.6v1.9H31.3zm-3.1 18.2c-.6 0-1.2-.1-1.8-.3h-.1c-.8-.3-1.6-.7-2.3-1.3l-1.5 1.2c1.5 1.5 3.5 2.4 5.7 2.4h.3v-1.9h-.3v-.1zm42.9-10.4c-.4-.1-.8-.2-1.3-.2-2.4 0-4.3 1.9-4.3 4.3s1.9 4.3 4.3 4.3 4.3-1.9 4.3-4.3c0-1.9-1.2-3.5-3-4.1 0 .1 0 0 0 0zm-1.3-4h-4v1.9h4c.4 0 .8 0 1.3.1l.7-1.8c-.7-.1-1.3-.2-2-.2zm6 6.4l1.9-.3c-.6-2.3-2.1-4.1-4.1-5.2l-.7 1.8c1.4.8 2.4 2.1 2.9 3.7zm-38 8h5.5v1.9h-5.5zm23.6-52.6H72v10.6H61.4zm-8.7 52.6h5.5v1.9h-5.5zm21.5-1.8l1.1 1.6c1.6-1.5 2.6-3.6 2.6-6v-.1l-1.9.2c0 1.7-.7 3.2-1.8 4.3z"/> <path class="xst0" d="M49 1C22.5 1 1 22.5 1 49s21.5 48 48 48 48-21.5 48-48S75.5 1 49 1zm31 58c0 .5-.4 1-1 1h-9.2v1.9c5.5 0 10 4.5 10 10.1 0 5.5-4.5 10.1-10.1 10.1H28.2c-5.5 0-10.1-4.5-10.1-10.1 0-5.5 4.5-10.1 10.1-10.1h1.1V60h-3.8c-.5 0-1-.4-1-1 0-.5.4-1 1-1H78v-1.9H19.9V58h1.3c.5 0 1 .4 1 1 0 .5-.4 1-1 1H19c-.5 0-1-.4-1-1v-3.8c0-.5.4-1 1-1h1.3V42.8c0-1.5 1-2.8 2.4-3.2l8.8-2.3V27c0-.5.4-1 1-1 .5 0 1 .4 1 1v10.5l6.3 2.7c.8.4 1.4 1.2 1.4 2.1v12h4.3v-7.4c0-2.1 1.7-3.8 3.8-3.8h6.5V21.8H33.4v1.1c0 .5-.4 1-1 1-.5 0-1-.4-1-1v-1.1H30c-.5 0-1-.4-1-1V17c0-.5.4-1 1-1h48.6c.5 0 1 .4 1 1v3.8c0 .5-.4 1-1 1h-.8V49c0 .5-.4 1-1 1s-1-.4-1-1V21.8H57.6v32.4h18.3v-1c0-.5.4-1 1-1s1 .4 1 1v1H79c.5 0 1 .4 1 1V59zm-7-11.9H60.4c-.5 0-1-.4-1-1 0-.5.4-1 1-1H73c.5 0 1 .4 1 1-.1.6-.5 1-1 1zm.9 2.9c0 .5-.4 1-1 1H60.4c-.5 0-1-.4-1-1 0-.5.4-1 1-1H73c.5.1.9.5.9 1zm-.9-6.7H60.4c-.5 0-1-.4-1-1 0-.5.4-1 1-1H73c.5 0 1 .4 1 1-.1.5-.5 1-1 1zm0-5.2H60.4c-.5 0-1-.4-1-1V24.6c0-.5.4-1 1-1H73c.5 0 1 .4 1 1v12.5c-.1.6-.5 1-1 1z"/> <path class="xst0" d="M45.3 78.2h5.5v1.9h-5.5zm14.9 0h5.5v1.9h-5.5zm9.6 0h-2.2v1.9h2.2c1.4 0 2.8-.4 3.9-1l-1.1-1.6c-.8.4-1.8.7-2.8.7z"/> </svg> 