<svg id="type-06" viewBox="0 0 98 98" xmlns="http://www.w3.org/2000/svg"> <style> .yst0{fill-rule:evenodd;clip-rule:evenodd;fill:#60d1b0}</style> <path class="yst0" d="M26.9 61.5c-3.1 0-5.7 2.5-5.7 5.7 0 3.1 2.5 5.7 5.7 5.7 3.1 0 5.7-2.5 5.7-5.7 0-3.1-2.5-5.7-5.7-5.7zm0 9.3c-2 0-3.7-1.6-3.7-3.7 0-2 1.6-3.7 3.7-3.7 2 0 3.7 1.6 3.7 3.7s-1.6 3.7-3.7 3.7z"/> <circle class="yst0" cx="26.9" cy="67.2" r="1.3"/> <path class="yst0" d="M13 54.2h2.8c1 0 1.9.8 1.9 1.9v3.3c0 1-.8 1.9-1.9 1.9H13v1.2h7.5c1.5-2 3.8-3.3 6.4-3.3 2.6 0 5 1.3 6.4 3.3h2.3V53H13v1.2zm13.3-.1h.7c.6 0 1.2.5 1.2 1.2 0 .6-.5 1.2-1.2 1.2h-.7c-.6 0-1.2-.5-1.2-1.2s.5-1.2 1.2-1.2z"/> <path class="yst0" d="M13 56.5h2.3v2.3H13zm25-31.3h46.8v2.3H38zM19.7 35.5h15.9v2.3H19.7zm-8.4 29.3v2.3h7.6c0-.8.1-1.6.4-2.3h-8zm72.3 0c.2.7.4 1.5.4 2.3h2.7v-2.3h-3.1z"/> <circle class="yst0" cx="76" cy="67.2" r="1.3"/> <path class="yst0" d="M76 61.5c-3.1 0-5.7 2.5-5.7 5.7 0 3.1 2.5 5.7 5.7 5.7 3.1 0 5.7-2.5 5.7-5.7-.1-3.1-2.6-5.7-5.7-5.7zm0 9.3c-2 0-3.7-1.6-3.7-3.7 0-2 1.6-3.7 3.7-3.7s3.7 1.6 3.7 3.7-1.7 3.7-3.7 3.7z"/> <path class="yst0" d="M49 1C22.5 1 1 22.5 1 49s21.5 48 48 48 48-21.5 48-48S75.5 1 49 1zm38.2 68.5h-3.5c-1 3.3-4 5.7-7.7 5.7-3.6 0-6.7-2.4-7.7-5.7h-2.4c-.6 0-1.2-.5-1.2-1.2 0-.6.5-1.2 1.2-1.2H68c0-.8.1-1.6.4-2.3H34.6c.2.7.4 1.5.4 2.3h26.1c.6 0 1.2.5 1.2 1.2 0 .6-.5 1.2-1.2 1.2H34.6c-1 3.3-4 5.7-7.7 5.7-3.6 0-6.7-2.4-7.7-5.7h-8.5c-1 0-1.8-.9-1.8-2v-3c0-1.1.7-1.9 1.6-2V52.4c0-1 .8-1.8 1.8-1.8H19V46c0-.6.5-1.2 1.2-1.2.6 0 1.2.5 1.2 1.2v4.5h14.1V40.2h-14v1.2c0 .6-.5 1.2-1.2 1.2s-1.2-.5-1.2-1.2v-1.2H19c-.9 0-1.6-.7-1.6-1.6v-3.1c0-1.3 1-2.3 2.3-2.3h15.9V24c0-.6.5-1.2 1.2-1.2H86c.6 0 1.2.5 1.2 1.2v8.9c0 .6-.5 1.2-1.2 1.2s-1.2-.5-1.2-1.2v-3H38v26.8h46.8V37.6c0-.6.5-1.2 1.2-1.2s1.2.5 1.2 1.2v24.8c1 0 1.8.9 1.8 2v3c0 1.2-.8 2.1-1.8 2.1z"/> <path class="yst0" d="M84.8 59H38v3.4h31.5c1.5-2 3.8-3.3 6.4-3.3s5 1.3 6.4 3.3h2.4V59z"/> </svg> 