<svg id="type-03" viewBox="0 0 98 98" xmlns="http://www.w3.org/2000/svg"> <style> .vst0{fill-rule:evenodd;clip-rule:evenodd;fill:#60d1b0}</style> <path class="vst0" d="M49 1C22.5 1 1 22.5 1 49s21.5 48 48 48 48-21.5 48-48S75.5 1 49 1zm43 45v4.4c0 .7 0 1.4-.1 2.1-.2 1.9-.8 3.7-1.6 5.4-1.4 2.8-3.5 5.2-6.2 6.9-2.7 1.7-5.9 2.7-9.1 2.7h-3.2c-.7 0-1.3-.6-1.3-1.3 0-.7.6-1.3 1.3-1.3H75c4.9 0 9.3-2.4 12-6.3H12.4c3.3 4 8.1 6.3 13.3 6.3h40.7c.7 0 1.3.6 1.3 1.3 0 .7-.6 1.3-1.3 1.3H25.7c-6.9 0-13.2-3.5-16.8-9.4-.4-.6-.7-1.2-1-1.8-.3-.9-.6-1.6-.9-2.3-.2-.5-.3-.9-.4-1.4-.4-1.6-.6-3.3-.6-4.9V46c0-.7.6-1.3 1.3-1.3h16c.7 0 1.3.6 1.3 1.3 0 .7-.6 1.3-1.3 1.3H8.5v.4c0 1.1.1 2.2.3 3.3h80.6v-3.7H28.9c-.7 0-1.3-.6-1.3-1.3 0-.7.6-1.3 1.3-1.3h4.5l10.2-13.6c.2-.3.6-.5 1-.5h4.8c1.6 0 3.1.4 4.5 1.1.6.3.8 1.1.5 1.7-.3.6-1.1.8-1.7.5-1-.5-2.2-.8-3.3-.8h-4.1l-8.7 11.6h19.9v-4.5c0-1.2-.3-2.3-.8-3.3-.3-.6-.1-1.4.5-1.7.6-.3 1.4-.1 1.7.5.6 1.2 1 2.6 1.1 4h10.4c3 0 5.6 2.2 6.2 5h2.5v-5.5c0-1.6 1.3-2.9 2.9-2.9h8.1c1.6 0 2.9 1.3 2.9 2.9V46z"/> <path class="vst0" d="M69.4 42.2H59v2.5h14c-.6-1.4-2-2.5-3.6-2.5zM9.6 53.6c0 .1.1.2.1.4 0 .1.1.2.1.3 0 .1.1.2.2.4 0 .1.1.2.1.3.1.1.1.2.2.4 0 .1.1.2.1.2.1.1.1.3.2.4 0 .1.1.1.1.2h77.6c0-.1 0-.1.1-.2 0-.1.1-.2.1-.3 0-.1.1-.2.1-.3 0-.1.1-.2.1-.3 0-.1.1-.2.1-.3 0-.1.1-.2.1-.3 0-.1 0-.2.1-.3 0-.1.1-.2.1-.4v-.2H9.5c.1-.1.1 0 .1 0zm79.5-14.8H81c-.2 0-.4.2-.4.4v5.5h8.9v-5.5c0-.2-.2-.4-.4-.4z"/> </svg> 