<svg id="type-02" viewBox="0 0 98 98" xmlns="http://www.w3.org/2000/svg"> <style> .ust0{fill-rule:evenodd;clip-rule:evenodd;fill:#60d1b0}</style> <ellipse class="ust0" cx="22.7" cy="61.6" rx="1.2" ry="1.2"/> <path class="ust0" d="M22.7 56.1c-3 0-5.5 2.5-5.5 5.5s2.5 5.5 5.5 5.5 5.5-2.5 5.5-5.5c-.1-3-2.5-5.5-5.5-5.5zm0 9.1c-1.9 0-3.5-1.6-3.5-3.5s1.6-3.5 3.5-3.5 3.5 1.6 3.5 3.5c.1 1.9-1.5 3.5-3.5 3.5z"/> <ellipse class="ust0" cx="73.3" cy="61.6" rx="1.2" ry="1.2"/> <path class="ust0" d="M59.1 35.6v8.3h15.3L72 35.6zM13.5 50.2h2.3v2.4h-2.3zm41-14.6h2.3v8.3h-2.3zM11.3 58.2v2.4h3.6c.1-.8.4-1.6.7-2.4h-4.3zm68.9 0c.4.7.6 1.5.7 2.4h5.7v-2.4h-6.4z"/> <path class="ust0" d="M49 1C22.5 1 1 22.5 1 49s21.5 48 48 48 48-21.5 48-48S75.5 1 49 1zm38.2 61.9h-6.3c-.6 3.7-3.8 6.6-7.7 6.6-3.9 0-7.1-2.9-7.7-6.6h-2.7c-.6 0-1.2-.5-1.2-1.2s.5-1.2 1.2-1.2h2.6c.1-.8.4-1.6.7-2.4H29.7c.4.7.6 1.5.7 2.4H58c.6 0 1.2.5 1.2 1.2s-.5 1.2-1.2 1.2H30.4c-.6 3.7-3.8 6.6-7.7 6.6-3.9 0-7.1-2.9-7.7-6.6h-4.1c-1 0-1.8-.9-1.8-2v-3c0-1.1.8-2 1.8-2h.3v-7.5c0-2.5 2-4.5 4.4-4.5h7.9c.6 0 1.2.5 1.2 1.2s-.5 1.2-1.2 1.2h-7.9c-1 0-1.8.7-2 1.6h2.7c1 0 1.9.8 1.9 1.9V53c0 1-.8 1.9-1.9 1.9h-2.8v1h4c1.4-1.3 3.2-2 5.2-2s3.9.8 5.2 2h40c1.4-1.3 3.2-2 5.2-2s3.9.8 5.2 2h6.1v-9.6H28c-.6 0-1.2-.5-1.2-1.2s.5-1.2 1.2-1.2h3.8l4.8-8.8c-.2-.2-.3-.5-.3-.7v-3.8c0-1.2.9-2.1 2.1-2.1H58c.6 0 1.2.5 1.2 1.2s-.5 1.2-1.2 1.2H38.7v2.4h33.9v-2.4h-9.7c-.6 0-1.2-.5-1.2-1.2s.5-1.2 1.2-1.2h9.9c1.2 0 2.1 1 2.1 2.1v3.8c0 .4-.2.8-.5 1l2.4 8.5h3V43c0-2.1 1.7-3.8 3.8-3.8h1.5c1 0 1.8.8 1.8 1.8v14.8h.3c1 0 1.8.9 1.8 2v3c0 1.2-.8 2.1-1.8 2.1zm-42-11.8c0-.7.5-1.2 1.2-1.2h.6c.6 0 1.2.5 1.2 1.2s-.5 1.2-1.2 1.2h-.7c-.6 0-1.1-.5-1.1-1.2z"/> <path class="ust0" d="M73.2 56.1c-3 0-5.5 2.5-5.5 5.5s2.5 5.5 5.5 5.5 5.5-2.5 5.5-5.5-2.5-5.5-5.5-5.5zm.1 9.1c-1.9 0-3.5-1.6-3.5-3.5s1.6-3.5 3.5-3.5 3.5 1.6 3.5 3.5-1.6 3.5-3.5 3.5zM34.5 43.9h17.6v-8.3H39zm50-2.4h-.9c-.8 0-1.4.6-1.4 1.4v.9h2.3v-2.3z"/> </svg>