 <svg id="type-01" viewBox="0 0 98 98" xmlns="http://www.w3.org/2000/svg"> <style> .tst0{fill:#6cc5ab}</style> <ellipse class="tst0" cx="22.7" cy="67.2" rx="1.2" ry="1.2"/> <path class="tst0" d="M13.5 55.8h2.3v2.3h-2.3zM48.1 52H40c-.6 0-1.2-.5-1.2-1.2v-8c0-.6.5-1.2 1.2-1.2h8.2v-2.3H36.5v22.2h11.7V52zM11.3 66.2h3.6c.1-.8.4-1.6.7-2.3h-4.3v2.3zm18.1-40.9h13.3v2.3H29.4zm36 0h13.3v2.3H65.4zm-5.8 14h-9.1v22.2h9.1V39.3zm-5.3 16.2h-.7c-.6 0-1.2-.5-1.2-1.2 0-.6.5-1.2 1.2-1.2h.7c.6 0 1.2.5 1.2 1.2-.1.7-.6 1.2-1.2 1.2zm-31.6 6.3c-3 0-5.5 2.4-5.5 5.4 0 3 2.5 5.4 5.5 5.4s5.5-2.4 5.5-5.4c-.1-3-2.5-5.4-5.5-5.4zm0 8.9c-1.9 0-3.5-1.6-3.5-3.5s1.6-3.5 3.5-3.5 3.5 1.6 3.5 3.5c.1 2-1.5 3.5-3.5 3.5zM62 44h18.1v5.7H62z"/> <path class="tst0" d="M41.1 44h7v5.7h-7zM30.4 66.2h35.1c.1-.8.4-1.6.7-2.3H29.7c.3.6.6 1.4.7 2.3z"/> <ellipse class="tst0" cx="73.3" cy="67.2" rx="1.2" ry="1.2"/> <path class="tst0" d="M49 1C22.5 1 1 22.5 1 49s21.5 48 48 48 48-21.5 48-48S75.5 1 49 1zm38.2 67.5h-6.3c-.6 3.7-3.8 6.5-7.7 6.5-3.9 0-7.1-2.8-7.7-6.5H30.4c-.6 3.7-3.8 6.5-7.7 6.5-3.9 0-7.1-2.8-7.7-6.5h-4.1c-1 0-1.8-.9-1.8-2v-3c0-1.1.8-2 1.8-2h.3v-9.1c0-1.5 1.2-2.7 2.7-2.7H18l1.3-5c.2-.6.8-1 1.4-.8.6.2 1 .8.8 1.4l-1.1 4.4h13.8V39.3H23l-.4 1.4c-.1.5-.6.9-1.1.9h-.3c-.6-.2-1-.8-.8-1.4l.2-.8h-4.7c-1.1 0-2.2-.6-2.7-1.6s-.4-2.2.2-3.1l3.1-4.4c1.1-1.5 2.9-2.5 4.8-2.5H27v-3.5c0-.6.5-1.2 1.2-1.2h15.6c.6 0 1.2.5 1.2 1.2v3.5h.7c.6 0 1.2.5 1.2 1.2 0 .6-.5 1.2-1.2 1.2H21.3c-1.1 0-2.2.6-2.9 1.5l-3.1 4.4c-.2.3-.1.6-.1.7.1.1.2.4.6.4h68.6v-7H50.9c-.6 0-1.2-.5-1.2-1.2 0-.6.5-1.2 1.2-1.2h12.2v-3.5c0-.6.5-1.2 1.2-1.2h15.6c.6 0 1.2.5 1.2 1.2v3.5h4.7c.6 0 1.2.5 1.2 1.2v27.5c0 .6-.5 1.2-1.2 1.2s-1.2-.5-1.2-1.2V39.3H62v2.3h19.3c.6 0 1.2.5 1.2 1.2v8c0 .6-.5 1.2-1.2 1.2H62v9.5h6c1.4-1.3 3.2-2 5.2-2s3.9.8 5.2 2h6.1v-.7c0-.6.5-1.2 1.2-1.2s1.2.5 1.2 1.2v.7h.3c1 0 1.8.9 1.8 2v3c0 1.1-.8 2-1.8 2z"/> <path class="tst0" d="M73.2 61.8c-3 0-5.5 2.4-5.5 5.4 0 3 2.5 5.4 5.5 5.4s5.5-2.4 5.5-5.4c0-3-2.5-5.4-5.5-5.4zm.1 8.9c-1.9 0-3.5-1.6-3.5-3.5s1.6-3.5 3.5-3.5 3.5 1.6 3.5 3.5c0 2-1.6 3.5-3.5 3.5zM34.1 52H13.8c-.2 0-.4.2-.4.4v1.1h2.8c1 0 1.9.8 1.9 1.9v3.3c0 1-.8 1.9-1.9 1.9h-2.8v1h4c1.4-1.3 3.2-2 5.2-2s3.9.8 5.2 2H34V52zM30 55.5h-.7c-.6 0-1.2-.5-1.2-1.2 0-.6.5-1.2 1.2-1.2h.7c.6 0 1.2.5 1.2 1.2s-.6 1.2-1.2 1.2zm50.9 10.7h5.7v-2.3h-6.4c.4.6.6 1.4.7 2.3z"/> </svg>