<svg id="process-contact" viewBox="0 0 53 53" xmlns="http://www.w3.org/2000/svg"> <style> .mst0{fill:#8b92a5}</style> <path class="mst0" d="M26.5 1C12.4 1 1 12.4 1 26.5S12.4 52 26.5 52c.9 0 1.6-.7 1.6-1.6 0-.9-.7-1.6-1.6-1.6-12.3 0-22.4-10-22.4-22.4C4.1 14.1 14.1 4 26.5 4c12.3 0 22.4 10 22.4 22.4 0 5.2-2.7 10.3-6.7 12.4-1.4.8-3 1.2-4.6 1.2 1-.6 1.8-1.4 2.5-2.4.1-.2.3-.4.4-.6.5-1.2.6-2.6.9-3.9.4-1.7-7.3-4.9-7.9-2.8-.2.8-.6 3.2-1.1 3.8-.4.6-1.5.3-2.1-.3-1.7-1.5-3.7-3.7-5.4-5.4l-.1-.1-.1-.1c-1.7-1.7-3.9-3.7-5.4-5.4-.6-.7-.8-1.7-.3-2.1.6-.5 3.1-.8 3.8-1.1 2.1-.7-1.2-8.3-2.8-7.9-1.3.3-2.7.4-3.9.9-.2.1-.4.2-.6.4-4.4 2.8-4.9 9.5-.7 14.5 1.6 1.9 3.3 3.8 5.1 5.6l.1.1c0 .1.1.1.1.2 1.8 1.7 4 4.3 7.4 6.6 7.3 4.9 13 3.5 16.3 1.7 5.7-3.2 8.3-9.9 8.3-15.2C52 12.4 40.6 1 26.5 1z"/> </svg>