<svg id="process-tax" viewBox="0 0 48 44" xmlns="http://www.w3.org/2000/svg"> <style> .ost0{fill:#8b92a5}</style> <path class="ost0" d="M39.9 28.5c-.7.9-1.3 1.9-1.7 3.1H9.8c-.4-1.2-1.1-2.2-1.8-3.1H5.2c-1.2 0-2.3-.3-3.3-.9H1v2.9c0 1.3.8 2.7 1.5 3.3.5.5 1.7.9 2.7.9h37.5c2.3 0 4.2-1.9 4.2-4.2v-3.6c-1.1 1-2.6 1.6-4.2 1.6h-2.8zM42.8 1H5.2C2.9 1 1 2.9 1 5.2v16.9c0 1.3.8 2.7 1.5 3.3.5.5 1.7.9 2.7.9h37.5c2.3 0 4.2-1.9 4.2-4.2V5.2C47 2.9 45.1 1 42.8 1zm1 16.3c-2.5.9-4.7 2.9-5.7 5.8H9.8c-1.1-2.8-3.3-4.8-5.7-5.8V9.9C6.6 9 8.8 7 9.8 4.1h28.4c1 3.1 3.2 5 5.7 5.8l-.1 7.4z"/> <path class="ost0" d="M24 6.2c-4.1 0-7.5 3.4-7.5 7.5s3.3 7.5 7.5 7.5c4.1 0 7.5-3.4 7.5-7.5-.1-4.2-3.4-7.5-7.5-7.5zm.6 11.7v1.4h-1.3V18c-.9 0-1.8-.3-2.4-.6l.4-1.6c.6.3 1.4.6 2.3.6.8 0 1.3-.3 1.3-.9 0-.5-.4-.9-1.5-1.2-1.4-.4-2.4-1.1-2.4-2.5 0-1.2.9-2.2 2.3-2.5V8.1h1.4v1.2c.9 0 1.5.2 2 .5l-.4 1.6c-.4-.2-1-.5-2-.5-.9 0-1.2.4-1.2.8 0 .5.5.7 1.7 1.2 1.6.6 2.3 1.3 2.3 2.6-.1 1.1-.9 2.2-2.5 2.4zm15.3 18.9c-.7.9-1.3 1.9-1.7 3.1H9.8c-.4-1.2-1.1-2.2-1.8-3.1H5.2c-1.2 0-2.3-.3-3.3-.9H1v2.9c0 1.3.8 2.7 1.5 3.3.6.4 1.7.9 2.7.9h37.5c2.3 0 4.2-1.9 4.2-4.2v-3.6c-1.1 1-2.6 1.6-4.2 1.6h-2.8z"/> </svg>