<svg id="pinterest" viewBox="0 0 42 42" xmlns="http://www.w3.org/2000/svg"> <style> .lst0{fill:#ee1b22}</style> <path class="lst0" d="M21 1C10 1 1 10 1 21s9 20 20 20 20-9 20-20S32 1 21 1zm2.2 26.4c-1.4 0-3.3-.7-4-2.1-1.3 5.2-1.2 5.9-4.1 9.9l-.2.1-.2-.2c-.1-1.1-.3-2.1-.3-3.2 0-3.5 1.6-8.6 2.4-12-.4-.9-.5-1.9-.5-2.9 0-1.7 1.2-3.9 3.2-3.9 1.4 0 2.2 1.1 2.2 2.5 0 2.2-1.5 4.3-1.5 6.5 0 1.5 1.2 2.5 2.6 2.5 4 0 5.2-5.7 5.2-8.7 0-4.1-2.9-6.3-6.8-6.3-4.5 0-8 3.3-8 7.9 0 2.2 1.4 3.4 1.4 3.9 0 .4-.3 2-.9 2-.1 0-.2 0-.3-.1-2.5-.7-3.4-4-3.4-6.3 0-6.3 5.8-10.3 11.7-10.3 5.4 0 10.3 3.7 10.3 9.4 0 5.3-2.7 11.3-8.8 11.3z"/> </svg>