<svg id="facebook" viewBox="0 0 42 42" xmlns="http://www.w3.org/2000/svg"> <style> .cst0{fill:#6081c4}</style> <path class="cst0" d="M21 1C10 1 1 10 1 21s9 20 20 20 20-9 20-20S32 1 21 1zm5 11.5h-3.8c-.4 0-.8.3-.8.8v2.3H26l-.7 4.4h-3.8v12H17V20h-3v-4.5h3v-2.3c0-2.9 2.4-5.3 5.3-5.3H26v4.6z"/> </svg> <svg id="faq-info" viewBox="0 0 32 32" xmlns="http://www.w3.org/2000/svg"> <style> .dst0{fill:#ff8b44}</style> <path class="dst0" d="M29 8.5c-1.3-2.3-3.2-4.1-5.5-5.5-2.3-1.3-4.8-2-7.5-2s-5.2.7-7.5 2C6.2 4.4 4.4 6.2 3 8.5c-1.3 2.3-2 4.8-2 7.5s.7 5.2 2 7.5 3.2 4.1 5.5 5.5c2.3 1.3 4.8 2 7.5 2s5.2-.7 7.5-2 4.1-3.2 5.5-5.5c1.3-2.3 2-4.8 2-7.5s-.7-5.2-2-7.5zM13.5 4.7c0-.2.1-.3.2-.4.1-.1.3-.2.4-.2h3.8c.2 0 .3.1.4.2s.2.3.2.4v3.1c0 .2-.1.3-.2.4s-.3.2-.4.2h-3.8c-.2 0-.3-.1-.4-.2-.1-.1-.2-.3-.2-.4V4.7zM21 25.4c0 .2-.1.3-.2.4s-.3.2-.4.2h-8.8c-.2 0-.3-.1-.4-.2-.1-.1-.2-.3-.2-.4v-3.1c0-.2.1-.3.2-.4.1-.1.3-.2.4-.2h1.9v-6.2h-1.9c-.2 0-.3-.1-.4-.2-.1-.1-.2-.3-.2-.4v-3.1c0-.2.1-.3.2-.4.1-.1.3-.2.4-.2h6.3c.2 0 .3.1.4.2.1.1.2.3.2.4v10h1.9c.2 0 .3.1.4.2s.2.3.2.4v3z"/> </svg> 