<svg viewBox="0 0 67 42" id="rvs" xmlns="http://www.w3.org/2000/svg"> <path d="M67 30.5c0-.6 0-2.6-8.4-17.3-.7-1.3-1.4-2.4-1.8-3.2h2.3c3.5-.1 3.9-2.7 3.9-5 .1-4-3.2-5-4.9-5H4.9C0 0 0 5.9 0 7.8v24.6c0 1.4.6 3.9 3 3.9h9.9v-2H3c-.9 0-1-1.9-1-2V9.8h52.5c.3.6.9 1.6 1.7 2.9h-9.9c-.1 0-2 0-2 2.9v5.9c0 .1 0 2 3 2h14.8c2.1 4.1 3 6.2 3 6.9 0 2.9-2.5 3.7-4 3.9-.5-3.3-3.4-5.8-6.8-5.8-3.5 0-6.3 2.6-6.8 5.9h-8.9V14.7c0-2.1-1.8-2.9-3-2.9h-4.9c-2.2 0-3 1.8-3 2.9l.1 19.5h-1.2c-.5-3.3-3.4-5.9-6.8-5.9-3.8 0-6.9 3.1-6.9 6.8 0 3.8 3.1 6.8 6.9 6.8 3.5 0 6.3-2.6 6.8-5.9h20.8c.5 3.3 3.4 5.9 6.8 5.9 3.5 0 6.4-2.6 6.8-5.9 3.7 0 6-2.2 6-5.5zM4.9 2h53.2c.5 0 3 .2 3 2.9 0 2.9-.9 2.9-2 2.9H2C2 3.7 2.9 2 4.9 2zm42.4 19.7c-.6 0-.9-.1-1-.2v-5.7c0-.6.1-.9.2-1h10.8c1.5 2.6 2.7 4.9 3.8 6.8H47.3v.1zm-17.7-7c0-.5.2-1 1-1h4.9c.5 0 1 .2 1 1v19.5h-6.8l-.1-19.5zm-9.9 25.5c-2.7 0-4.9-2.2-4.9-4.9s2.2-4.9 4.9-4.9 4.9 2.2 4.9 4.9c0 2.8-2.2 4.9-4.9 4.9zm34.5 0c-2.7 0-4.9-2.2-4.9-4.9s2.2-4.9 4.9-4.9 4.9 2.2 4.9 4.9c0 2.8-2.2 4.9-4.9 4.9z"/> <path d="M25.6 21.7v-5.9c0-2.1-1.8-2.9-3-2.9H6.9c-2.9 0-3 1.9-3 2v5.9c0 2.2 1.8 2.9 3 2.9h15.8c2.9-.1 2.9-1.9 2.9-2zM5.9 20.5v-5.7c.1-.1.4-.2 1-.2h15.8c.5 0 1 .2 1 1v5.7c-.1.1-.4.2-1 .2H6.9c-.4.2-1 0-1-1zm34.5 9h4.9v2h-4.9z"/> </svg>