 <svg viewBox="0 0 40 45" id="other" xmlns="http://www.w3.org/2000/svg"> <path d="M39.7 35.2l-5.6-5.6c-.2-.2-.4-.3-.7-.3H18.7c-.4-.6-.8-1.1-1.2-1.6-1.9-2-4.5-3.1-7.2-3.1h-.1c.1-2 .1-3.9 0-5.8h23.2c.5 0 .9-.4.9-.9V.9c.1-.5-.3-.9-.8-.9H9.3c-.3 0-.6.2-.8.4L2.9 8.8c-.2.3-.2.7 0 1l2.5 3.7c-.3 1.3-.5 2.9-.7 4.5-.4 2.9-.4 5.6-.3 8.1-.5.3-.9.7-1.4 1.1-1.9 1.9-3 4.5-3 7.2 0 2.8 1 5.4 2.9 7.3 1.9 2 4.5 3.1 7.2 3.1h.1c2.7 0 5.3-1.1 7.2-3 .5-.5 1-1.1 1.3-1.6h1.1l1.9 1.6c.3.3.8.3 1.1.1l2.3-1.5 2.3 1.5c.3.2.7.2 1 0l2.3-1.5L33 42c.2.1.3.2.5.2.1 0 .3 0 .4-.1l3.7-1.9c.2-.1.3-.2.4-.4l1.9-3.7c.2-.2.1-.6-.2-.9zM4.8 9.3l5-7.4h22.8v15H9.8l-2.4-3.6c.5-2.3.9-3.7.9-3.7.2-.5-.1-1-.6-1.2a.8.8 0 0 0-1.1.6c0 .1-.3.8-.6 2L4.8 9.3zm3.6 15.3c-.7.1-1.5.4-2.2.6-.1-2.5 0-4.9.3-6.9.1-.9.2-1.8.4-2.6l1.4 2.1c.2 2.6.2 4.9.1 6.8zm1.8 18.7c-2.3 0-4.4-.9-6-2.6-1.6-1.6-2.4-3.7-2.4-6 0-2.4 1.1-4.6 2.8-6.2.4 2.5 1 4.7 2 6.7.2.3.5.5.8.5.1 0 .3 0 .4-.1.5-.2.7-.8.4-1.3-1.1-2.2-1.6-4.6-1.9-7.1 1.2-.6 2.5-1 3.9-1h.1c2.2 0 4.3.9 5.9 2.6 1.6 1.6 2.4 3.7 2.4 6-.1 4.8-3.8 8.5-8.4 8.5zm26.3-4.4l-2.9 1.5-2.4-1.6c-.2-.1-.3-.2-.5-.2s-.4.1-.5.2l-2.3 1.5-2.3-1.5c-.3-.2-.7-.2-1 0l-2.2 1.5-1.6-1.3c-.2-.1-.4-.2-.6-.2h-.5c.5-1.2.7-2.4.7-3.7 0-1.4-.2-2.7-.7-3.9H33l1.9 1.9H24.2c-.5 0-.9.4-.9.9s.4.9.9.9h12.6l1.1 1.1-1.4 2.9z"/> <path d="M12.1 13.2h2c.4 1.1 1.4 1.9 2.6 1.9s2.2-.8 2.6-1.9h3.1c.4 1.1 1.4 1.9 2.6 1.9s2.2-.8 2.6-1.9h2c.5 0 .9-.4.9-.9V8.5c0-.4-.3-.8-.7-.9l-4.3-.9L24 4.1c-.2-.3-.5-.4-.8-.4h-6.5c-.3 0-.6.2-.8.4l-1.6 2.4H12c-.5 0-.9.4-.9.9v4.7c.1.6.5 1.1 1 1.1zm4.6 0c-.5 0-.9-.4-.9-.9s.4-.9.9-.9.9.4.9.9c.1.4-.3.9-.9.9zm8.4 0c-.5 0-.9-.4-.9-.9s.4-.9.9-.9.9.4.9.9c0 .4-.4.9-.9.9zM13 8.4h1.9c.3 0 .6-.2.8-.4l1.6-2.4h5.5L24.4 8c.1.2.4.4.6.4l3.9.8v2h-1.1c-.4-1.1-1.4-1.9-2.6-1.9-1.2 0-2.2.8-2.6 1.9h-3.1c-.5-1.1-1.5-1.9-2.8-1.9-1.2 0-2.2.8-2.6 1.9H13V8.4z"/> </svg> 