<svg id="twitter" viewBox="0 0 42 42" xmlns="http://www.w3.org/2000/svg"> <style> .sst0{fill:#55acee}</style> <path class="sst0" d="M21 1C10 1 1 10 1 21s9 20 20 20 20-9 20-20S32 1 21 1zm13.5 11.6c-.8 1.1-1.7 2.1-2.8 2.9v.7C31.8 23.5 26.2 32 16 32c-3.1 0-6.1-.9-8.5-2.5.4.1.9.1 1.3.1 2.6 0 5-.9 6.9-2.4-2.4-.1-4.5-1.6-5.2-3.8.3.1.7.1 1 .1.5 0 1-.1 1.5-.2-2.5-.5-4.5-2.8-4.5-5.4v-.1c.7.4 1.6.7 2.5.7-1.5-1-2.5-2.7-2.5-4.6 0-1 .3-2 .8-2.8 2.7 3.4 6.8 5.6 11.4 5.8-.1-.4-.1-.8-.1-1.3 0-3.1 2.5-5.6 5.6-5.6 1.6 0 3 .7 4.1 1.8 1.3-.2 2.5-.7 3.5-1.3-.4 1.3-1.3 2.4-2.4 3.1 1.1-.2 2.1-.6 3.1-1z"/> </svg> 