<svg width="345" height="396" viewBox="0 0 345 396" fill="none" xmlns="http://www.w3.org/2000/svg">
<g clip-path="url(#clip0)">
<path d="M345 358.325H324.785V133.814H263.467V358.325H243.252V223.024H182.607V358.325H162.393V178.419H101.748V358.325H81.5332V245.326H20.2148V358.325H0V380.627H345V358.325Z" fill="#FF6910" fill-opacity="0.6"/>
<path d="M345 89.2095V0H263.467V22.3024H310.493L212.93 129.197L132.07 39.9874L2.96143 181.686L17.2533 197.454L132.07 71.5245L212.93 160.734L324.785 38.0709V89.2095H345Z" fill="#FF6910" fill-opacity="0.6"/>
</g>
<path d="M244.576 276.629H176.334V386.854H244.576V276.629Z" fill="#B2B2B2"/>
<path d="M176.6 276.631H108.358V386.855H176.6V276.631Z" fill="#D1D1D1"/>
<path d="M140.847 142.963L137.938 202.212L124.258 245.66H148.886L161.677 208.225L165.674 165.682L140.847 142.963Z" fill="#F7EBE7"/>
<path d="M140.159 350.052L145.111 373.539L128.478 375.551L123.748 352.425L140.159 350.052Z" fill="#FCC9A7"/>
<path d="M146.11 371.414C145.688 370.148 144.356 369.696 143.445 370.51C141.669 372.115 138.471 374.081 133.741 373.607C128.833 373.109 126.99 370.171 126.279 368.046C125.902 366.938 124.858 366.373 123.925 366.848L94.1457 382.084C92.347 383.011 90.9257 384.729 90.2151 386.876C89.5489 388.888 90.8813 391.058 92.7467 391.013L144.2 389.566C146.221 389.521 147.776 387.486 147.598 385.136L146.754 373.607C146.732 373.426 146.71 373.222 146.643 373.042L146.11 371.414Z" fill="#1F252A"/>
<path d="M139.87 236.482H101.252C101.252 236.482 77.7346 235.148 76.3356 254.792C74.9366 274.437 110.823 330.634 116.441 360.654L148.73 357.941L125.48 276.313L183.307 276.652C187.593 276.674 191.856 276.042 195.898 274.617C207.157 270.639 224.345 264.942 214.974 233.385L139.87 236.482Z" fill="#092330"/>
<path d="M169.672 350.142L177.533 378.218L160.9 380.23L153.261 352.516L169.672 350.142Z" fill="#FCC9A7"/>
<path d="M178.532 376.093C178.11 374.828 176.778 374.375 175.868 375.189C174.091 376.794 170.893 378.761 166.163 378.286C161.255 377.789 159.412 374.85 158.701 372.725C158.324 371.618 157.28 371.052 156.347 371.527L126.568 386.763C124.769 387.69 123.348 389.408 122.637 391.556C121.971 393.567 123.304 395.738 125.169 395.692L177.511 394.246C179.532 394.2 181.086 392.166 180.908 389.815L179.154 378.286C179.132 378.105 179.11 377.902 179.043 377.721L178.532 376.093Z" fill="#1F252A"/>
<path d="M186.016 119.68C186.882 120.539 225.633 130.598 225.633 130.598L217.35 153L174.979 149.745L186.016 119.68Z" fill="#F7EBE7"/>
<path d="M170.027 125.082C170.027 125.082 144.778 134.463 140.847 142.963C142.202 154.966 146.354 166.518 153.194 176.396C161.588 188.513 171.959 209.333 170.049 236.482H243.044C243.044 236.482 239.113 160.098 217.506 130.779L170.027 125.082Z" fill="#F7EBE7"/>
<path d="M178.31 137.199C185.483 135.707 190.102 128.586 188.636 121.284L184.35 99.9224L158.391 105.325L162.676 126.687C164.142 133.989 171.137 138.691 178.31 137.199Z" fill="#FCC9A7"/>
<path d="M186.127 107.382C186.127 107.382 183.395 124.698 170.16 125.738C158.568 126.642 159.678 109.575 159.678 109.575L186.127 107.382Z" fill="#F4BE9A"/>
<path d="M171.204 116.243L173.491 115.701C184.972 112.988 192.123 101.324 189.458 89.6593L186.438 76.3447C183.773 64.6577 172.314 57.3787 160.855 60.0913L158.568 60.6339C147.087 63.3465 139.936 75.011 142.601 86.6754L145.622 99.9901C148.286 111.677 159.745 118.956 171.204 116.243Z" fill="#FCC9A7"/>
<path d="M182.263 95.1977C181.73 96.1245 181.219 97.526 181.041 99.651C180.842 102.341 179.509 104.895 177.289 106.387C170.915 110.682 166.052 99.8092 156.636 101.731C156.636 101.731 152.95 102.296 152.217 106.478C151.484 110.637 146.354 103.358 145.222 98.385C144.089 93.4118 143.512 123.002 166.696 120.493C166.696 120.493 178.399 120.109 186.282 107.97C187.149 106.636 187.659 105.076 187.704 103.471C187.77 101.098 187.437 97.5034 185.216 94.9264C184.439 93.977 182.885 94.1126 182.263 95.1977Z" fill="#1C2226"/>
<path d="M182.285 88.4839C182.285 88.4839 172.27 85.1157 173.958 70.2187C173.958 70.2187 149.086 94.1804 130.654 76.5934C130.654 76.5934 138.893 74.3555 142.291 68.6137C148.486 58.1474 166.296 43.7251 180.553 60.4079C180.553 60.4079 197.897 57.6727 192.922 84.867L182.285 88.4839Z" fill="#1C2226"/>
<path d="M182.285 88.4839C183.24 92.6433 187.326 95.2429 191.412 94.2935C195.521 93.3215 198.052 89.162 197.119 85.0026C196.164 80.8432 192.078 78.2435 187.992 79.193C183.884 80.165 181.33 84.3244 182.285 88.4839Z" fill="#FCC9A7"/>
<path d="M169.627 136.362L180.353 136.566L172.847 152.39L164.742 137.221L169.627 136.362Z" fill="#0C2C40"/>
<path d="M189.547 120.38L175.734 136.792L184.728 147.304L201.272 124.155C201.272 124.155 197.031 117.215 189.547 120.38Z" fill="#FFF7F3"/>
<path d="M169.627 136.362L161.677 145.495L156.081 131.253C156.081 131.253 157.547 124.856 162.121 126.077L169.627 136.362Z" fill="#FFF7F3"/>
<path d="M172.558 147.281C172.558 147.281 162.188 174.814 164.764 213.876L174.979 223.371L186.904 211.684L174.046 145.495L172.558 147.281Z" fill="#0C2C40"/>
<path d="M191.945 212.656L169.738 220.093L168.273 233.363L197.719 224.411L191.945 212.656Z" fill="#FCC9A7"/>
<path d="M173.047 228.864C173.047 236.618 166.874 242.925 159.234 242.925C151.617 242.925 145.422 236.64 145.422 228.864C145.422 221.11 151.595 214.803 159.234 214.803C166.851 214.803 173.047 221.088 173.047 228.864Z" fill="#FCC9A7"/>
<path d="M170.027 236.482H131.431C131.431 236.482 107.914 235.148 106.515 254.792C105.116 274.437 143.645 334.251 149.263 364.248L181.553 361.535L155.659 276.29L213.486 276.629C217.772 276.652 222.036 276.019 226.077 274.595C237.336 270.616 254.525 264.92 245.153 233.362L170.027 236.482Z" fill="#0C2C40"/>
<path d="M53.5957 167.015H120.328C122.526 167.015 124.414 168.575 124.88 170.768L137.449 230.763C138.071 233.701 135.85 236.482 132.897 236.482H65.0545C62.8338 236.482 60.9241 234.877 60.5021 232.662L49.0433 172.667C48.4659 169.728 50.6644 167.015 53.5957 167.015Z" fill="#B2B2B2"/>
<path d="M49.7539 167.015H116.464C118.662 167.015 120.55 168.575 121.016 170.768L133.585 230.763C134.207 233.701 132.009 236.482 129.033 236.482H61.2127C58.992 236.482 57.0823 234.877 56.6603 232.662L45.2015 172.667C44.6241 169.728 46.8226 167.015 49.7539 167.015Z" fill="#D1D1D1"/>
<path d="M135.628 231.35H181.219C182.618 231.35 183.729 232.503 183.729 233.905C183.729 235.329 182.596 236.459 181.219 236.459H134.74L135.628 231.35Z" fill="#B2B2B2"/>
<path d="M91.059 200.178C91.059 204.269 87.8168 207.57 83.7973 207.57C79.7778 207.57 76.5356 204.247 76.5356 200.178C76.5356 196.086 79.8 192.786 83.7973 192.786C87.8168 192.786 91.059 196.086 91.059 200.178Z" fill="white"/>
<path d="M209.711 151.938L234.094 192.017L175.734 213.221L183.729 230.808C183.729 230.808 233.628 225.112 257.745 206.191C259.965 204.45 261.076 201.624 260.698 198.799C259.566 189.757 254.724 167.807 234.094 136.611C229.897 130.259 221.547 128.337 215.041 132.18C208.267 136.159 205.891 144.975 209.711 151.938Z" fill="#F7EBE7"/>
<path d="M191.257 207.57L234.094 192.017L212.664 156.775" stroke="#EADDD8" stroke-width="0.7599" stroke-miterlimit="10" stroke-linecap="round" stroke-linejoin="round"/>
<path d="M162.255 194.3L151.706 165.953" stroke="#EADDD8" stroke-width="0.7599" stroke-miterlimit="10" stroke-linecap="round" stroke-linejoin="round"/>
<path d="M191.945 229.61C191.945 229.61 224.723 225.428 241.245 215.798" stroke="#EADDD8" stroke-width="0.7599" stroke-miterlimit="10" stroke-linecap="round" stroke-linejoin="round"/>
<defs>
<clipPath id="clip0">
<rect width="345" height="380.627" fill="white"/>
</clipPath>
</defs>
</svg>
